#!OML:ASF G:\JayActor3\Patient Classification 1\Patient 1\Session 6\male.ASF
:FULLY-SPECIFIED
:DEGREES
5032
root -1.52424 16.4994 -2.87378 166.892 -70.3059 -166.163
lowerback -0.82785 -0.519377 5.07764
upperback -2.41585 -0.720732 -1.10278
thorax -2.10269 -0.48385 -3.97879
lowerneck -1.81736 4.50411 1.80463
upperneck -2.48147 5.85077 -5.44137
head -0.236459 2.90257 -1.96718
rclavicle 9.19379e-015 -7.95139e-016
rhumerus -80.177 29.1952 -113.715
rradius 79.2529
rwrist 30.6431
rhand -64.121 40.1939
rfingers 7.12502
rthumb -36.0656 13.8936
lclavicle 9.19379e-015 -7.95139e-016
lhumerus -28.0173 -58.2108 78.95
lradius 59.7955
lwrist 26.6702
lhand 13.6931 6.19605
lfingers 7.12502
lthumb 38.6201 31.8238
rfemur -6.02492 9.1345 17.5657
rtibia 26.9486
rfoot -21.561 -15.2409
rtoes -0.168552
lfemur 6.62549 6.90836 -7.3918
ltibia 9.25775
lfoot -13.533 15.4121
ltoes -7.75898
5033
root -1.5233 16.4998 -2.87321 166.89 -70.3116 -166.15
lowerback -0.834604 -0.516478 5.07998
upperback -2.41148 -0.717252 -1.1048
thorax -2.09407 -0.481819 -3.98234
lowerneck -1.82466 4.51263 1.80724
upperneck -2.4813 5.86229 -5.4343
head -0.234885 2.90823 -1.96504
rclavicle 2.83268e-014 1.98785e-014
rhumerus -80.1683 29.1868 -113.707
rradius 79.2542
rwrist 30.6474
rhand -64.1216 40.2238
rfingers 7.12502
rthumb -36.0662 13.9235
lclavicle 2.83268e-014 1.98785e-014
lhumerus -28.1761 -58.1744 79.1126
lradius 59.7986
lwrist 26.6616
lhand 13.6756 6.1932
lfingers 7.12502
lthumb 38.6036 31.8256
rfemur -6.03602 9.12141 17.5639
rtibia 26.942
rfoot -21.5535 -15.2369
rtoes -0.165621
lfemur 6.60422 6.88839 -7.39455
ltibia 9.2661
lfoot -13.5352 15.4293
ltoes -7.75685
5034
root -1.52221 16.5005 -2.87264 166.9 -70.3236 -166.147
lowerback -0.84168 -0.515834 5.07652
upperback -2.40937 -0.716852 -1.10775
thorax -2.08785 -0.481364 -3.98353
lowerneck -1.82804 4.52091 1.81315
upperneck -2.48014 5.8735 -5.42991
head -0.233489 2.91377 -1.96443
rclavicle -8.64713e-015 7.15625e-015
rhumerus -80.1643 29.179 -113.701
rradius 79.2569
rwrist 30.6492
rhand -64.1249 40.248
rfingers 7.12502
rthumb -36.0693 13.9486
lclavicle -8.64713e-015 7.15625e-015
lhumerus -28.3304 -58.142 79.2704
lradius 59.8011
lwrist 26.6575
lhand 13.6522 6.19478
lfingers 7.12502
lthumb 38.5815 31.8334
rfemur -6.04814 9.10169 17.5564
rtibia 26.934
rfoot -21.5472 -15.23
rtoes -0.156686
lfemur 6.58316 6.86389 -7.40276
ltibia 9.26408
lfoot -13.5289 15.4489
ltoes -7.76782
5035
root -1.52095 16.5013 -2.87211 166.918 -70.3373 -166.153
lowerback -0.847077 -0.515529 5.0688
upperback -2.40865 -0.716844 -1.11151
thorax -2.08399 -0.481138 -3.98314
lowerneck -1.83426 4.52911 1.81811
upperneck -2.47106 5.88507 -5.42181
head -0.229289 2.9194 -1.96223
rclavicle 1.52567e-014 -3.97569e-015
rhumerus -80.1622 29.1716 -113.697
rradius 79.2587
rwrist 30.6522
rhand -64.1291 40.2448
rfingers 7.12502
rthumb -36.0732 13.9463
lclavicle 1.52567e-014 -3.97569e-015
lhumerus -28.4769 -58.1151 79.4201
lradius 59.8031
lwrist 26.659
lhand 13.6424 6.2007
lfingers 7.12502
lthumb 38.5723 31.8419
rfemur -6.0611 9.08306 17.5458
rtibia 26.9253
rfoot -21.5396 -15.226
rtoes -0.153223
lfemur 6.56353 6.83885 -7.41429
ltibia 9.25636
lfoot -13.5222 15.4678
ltoes -7.76798
5036
root -1.51945 16.5021 -2.87156 166.934 -70.3505 -166.154
lowerback -0.849584 -0.515431 5.0621
upperback -2.41119 -0.716943 -1.11442
thorax -2.08514 -0.481209 -3.98238
lowerneck -1.84014 4.53709 1.82145
upperneck -2.45493 5.8968 -5.41095
head -0.223091 2.92508 -1.95876
rclavicle 3.926e-015 -1.27222e-014
rhumerus -80.1644 29.1651 -113.696
rradius 79.26
rwrist 30.6522
rhand -64.1346 40.2311
rfingers 7.12502
rthumb -36.0784 13.9339
lclavicle 3.926e-015 -1.27222e-014
lhumerus -28.6214 -58.0913 79.5662
lradius 59.8058
lwrist 26.6645
lhand 13.6374 6.20851
lfingers 7.12502
lthumb 38.5675 31.851
rfemur -6.07714 9.06775 17.5373
rtibia 26.9165
rfoot -21.5305 -15.2262
rtoes -0.150001
lfemur 6.54142 6.81422 -7.42408
ltibia 9.2466
lfoot -13.5124 15.4877
ltoes -7.76981
5037
root -1.51787 16.503 -2.87103 166.946 -70.362 -166.152
lowerback -0.850554 -0.515181 5.05755
upperback -2.41442 -0.716747 -1.11744
thorax -2.08789 -0.481237 -3.98295
lowerneck -1.84578 4.54378 1.82624
upperneck -2.43729 5.90687 -5.39996
head -0.216488 2.92993 -1.9555
rclavicle 6.26172e-015 1.66979e-014
rhumerus -80.1663 29.1597 -113.698
rradius 79.2597
rwrist 30.6503
rhand -64.139 40.2142
rfingers 7.12502
rthumb -36.0826 13.918
lclavicle 6.26172e-015 1.66979e-014
lhumerus -28.7582 -58.0743 79.702
lradius 59.8094
lwrist 26.6734
lhand 13.6418 6.21899
lfingers 7.12502
lthumb 38.5717 31.8604
rfemur -6.0934 9.05441 17.5311
rtibia 26.9061
rfoot -21.5183 -15.2302
rtoes -0.158192
lfemur 6.51582 6.79044 -7.43111
ltibia 9.24241
lfoot -13.506 15.5056
ltoes -7.76505
5038
root -1.5162 16.5037 -2.87053 166.948 -70.3713 -166.138
lowerback -0.849294 -0.514663 5.05775
upperback -2.41874 -0.716045 -1.11991
thorax -2.09303 -0.481192 -3.98559
lowerneck -1.8522 4.54976 1.83069
upperneck -2.41491 5.91629 -5.38652
head -0.208395 2.93441 -1.95129
rclavicle 5.45664e-014 -1.51076e-014
rhumerus -80.1679 29.1536 -113.7
rradius 79.259
rwrist 30.6479
rhand -64.1415 40.2163
rfingers 7.12502
rthumb -36.085 13.9207
lclavicle 5.45664e-014 -1.51076e-014
lhumerus -28.8894 -58.0653 79.8302
lradius 59.8136
lwrist 26.6807
lhand 13.6587 6.22578
lfingers 7.12502
lthumb 38.5876 31.8627
rfemur -6.10837 9.04825 17.5304
rtibia 26.8935
rfoot -21.5069 -15.2375
rtoes -0.15673
lfemur 6.48547 6.76731 -7.4326
ltibia 9.24764
lfoot -13.5033 15.5224
ltoes -7.75866
5039
root -1.51444 16.5044 -2.87003 166.924 -70.3767 -166.098
lowerback -0.847154 -0.514382 5.06876
upperback -2.42337 -0.715522 -1.11983
thorax -2.09915 -0.481452 -3.99169
lowerneck -1.85556 4.55588 1.83593
upperneck -2.39419 5.92578 -5.37499
head -0.201247 2.93899 -1.94795
rclavicle 1.14798e-014 1.43125e-014
rhumerus -80.1686 29.1493 -113.703
rradius 79.258
rwrist 30.6492
rhand -64.1442 40.208
rfingers 7.12502
rthumb -36.0875 13.913
lclavicle 1.14798e-014 1.43125e-014
lhumerus -29.0122 -58.0601 79.9484
lradius 59.8184
lwrist 26.6852
lhand 13.6639 6.22919
lfingers 7.12502
lthumb 38.5926 31.8647
rfemur -6.12301 9.04652 17.541
rtibia 26.8785
rfoot -21.4936 -15.2503
rtoes -0.16612
lfemur 6.44917 6.74515 -7.42269
ltibia 9.26455
lfoot -13.5039 15.5376
ltoes -7.75802
5040
root -1.51276 16.505 -2.86954 166.895 -70.381 -166.055
lowerback -0.84424 -0.514374 5.08157
upperback -2.42751 -0.715302 -1.11929
thorax -2.10527 -0.481877 -3.99831
lowerneck -1.85839 4.56237 1.84072
upperneck -2.37428 5.93569 -5.36508
head -0.194389 2.94378 -1.94507
rclavicle -2.71838e-014 4.77083e-015
rhumerus -80.1676 29.1464 -113.705
rradius 79.2569
rwrist 30.6531
rhand -64.1441 40.2047
rfingers 7.12502
rthumb -36.0875 13.9097
lclavicle -2.71838e-014 4.77083e-015
lhumerus -29.1292 -58.0567 80.0596
lradius 59.8241
lwrist 26.6828
lhand 13.6608 6.22262
lfingers 7.12502
lthumb 38.5896 31.859
rfemur -6.1347 9.04656 17.553
rtibia 26.862
rfoot -21.481 -15.2629
rtoes -0.170123
lfemur 6.41022 6.72312 -7.41087
ltibia 9.29117
lfoot -13.509 15.5516
ltoes -7.76369
5041
root -1.51117 16.5054 -2.86907 166.859 -70.3848 -166.006
lowerback -0.841205 -0.514742 5.09746
upperback -2.43009 -0.71554 -1.11796
thorax -2.10994 -0.482494 -4.00586
lowerneck -1.86119 4.56996 1.84185
upperneck -2.35448 5.94712 -5.35326
head -0.187688 2.94936 -1.94093
rclavicle -6.24681e-014 -1.51076e-014
rhumerus -80.1654 29.1436 -113.705
rradius 79.2571
rwrist 30.6586
rhand -64.1401 40.1846
rfingers 7.12502
rthumb -36.0836 13.8887
lclavicle -6.24681e-014 -1.51076e-014
lhumerus -29.2359 -58.0555 80.1612
lradius 59.8298
lwrist 26.6774
lhand 13.6621 6.2122
lfingers 7.12502
lthumb 38.5909 31.8482
rfemur -6.14204 9.04793 17.568
rtibia 26.8452
rfoot -21.4688 -15.276
rtoes -0.174104
lfemur 6.37308 6.7004 -7.39621
ltibia 9.32178
lfoot -13.5144 15.5663
ltoes -7.77487
5042
root -1.50971 16.5057 -2.8686 166.834 -70.3902 -165.971
lowerback -0.839042 -0.51632 5.10935
upperback -2.43174 -0.717472 -1.11752
thorax -2.11328 -0.483827 -4.01206
lowerneck -1.85927 4.57883 1.84211
upperneck -2.33889 5.96004 -5.34403
head -0.182977 2.95579 -1.93766
rclavicle -5.66039e-014 -9.54166e-015
rhumerus -80.1634 29.143 -113.704
rradius 79.2583
rwrist 30.6653
rhand -64.1364 40.1609
rfingers 7.12502
rthumb -36.0802 13.8641
lclavicle -5.66039e-014 -9.54166e-015
lhumerus -29.3345 -58.0523 80.2546
lradius 59.8346
lwrist 26.6714
lhand 13.6636 6.20057
lfingers 7.12502
lthumb 38.5922 31.8362
rfemur -6.14714 9.0462 17.5772
rtibia 26.8302
rfoot -21.4598 -15.2841
rtoes -0.172051
lfemur 6.34027 6.67713 -7.3874
ltibia 9.34914
lfoot -13.5188 15.5819
ltoes -7.78533
